<svg xmlns="http://www.w3.org/2000/svg" width="512" height="512" viewBox="0 0 512 512">
<g>
<path d="M 105.89 458.54 C92.99,463.09 76.93,456.38 70.21,443.64 L 67.50 438.50 L 67.19 397.25 L 66.88 355.99 L 64.19 356.72 C51.91,360.04 37.19,351.35 33.48,338.59 C32.11,333.85 31.93,326.90 32.19,287.30 L 32.50 241.50 L 35.18 235.78 C38.94,227.76 45.73,220.86 53.27,217.39 C59.15,214.68 60.38,214.50 75.00,214.21 C83.53,214.05 91.12,213.70 91.88,213.43 C92.75,213.14 91.12,211.42 87.54,208.86 C80.75,203.99 73.96,195.15 70.94,187.22 C68.23,180.10 67.27,165.84 68.95,157.74 C70.82,148.76 76.17,139.09 82.78,132.79 C89.10,126.76 94.49,123.60 103.00,120.95 L 108.50 119.23 L 109.00 97.86 C109.46,78.29 109.69,76.12 111.75,71.92 C115.42,64.49 120.50,59.37 127.77,55.79 L 134.46 52.50 L 455.50 52.50 L 461.00 55.11 C467.62,58.26 473.27,63.74 476.85,70.50 L 479.50 75.50 L 479.77 182.67 C480.03,288.94 480.02,289.88 477.96,295.37 C475.23,302.67 468.36,310.19 461.20,313.70 L 455.50 316.50 L 168.00 317.03 L 167.98 437.50 L 165.64 442.52 C157.96,459.02 136.19,465.17 121.96,454.86 C119.79,453.29 117.72,452.00 117.35,452.00 C116.99,452.00 115.19,453.14 113.36,454.54 C111.53,455.94 108.17,457.74 105.89,458.54 ZM 168.45 299.73 C169.10,301.41 448.25,301.61 452.68,299.94 C456.13,298.63 460.70,294.43 462.59,290.80 C463.78,288.53 464.00,271.73 463.98,184.30 L 463.97 80.50 L 461.73 76.50 C460.26,73.86 457.97,71.73 455.03,70.25 L 450.58 68.00 L 295.04 68.02 C146.30,68.04 139.32,68.12 135.46,69.88 C130.51,72.13 126.28,76.97 125.50,81.28 C125.17,83.05 125.04,92.33 125.21,101.90 L 125.50 119.30 L 131.60 120.97 C140.19,123.32 145.85,126.94 152.83,134.56 C161.50,144.01 165.15,153.08 165.78,166.65 C166.34,178.77 164.15,187.61 158.48,196.03 C156.54,198.92 155.07,201.40 155.22,201.55 C155.38,201.70 165.18,197.10 177.00,191.31 C220.36,170.11 221.00,169.87 229.04,171.98 C244.21,175.96 251.39,191.80 244.40,205.83 C242.96,208.70 240.36,212.15 238.60,213.49 C236.85,214.83 220.36,222.90 201.96,231.43 L 168.50 246.94 L 168.23 272.70 C168.09,286.87 168.18,299.04 168.45,299.73 ZM 91.97 443.18 C96.92,445.38 103.91,442.84 107.04,437.70 C108.91,434.64 108.99,432.32 109.00,384.25 C109.00,335.34 109.05,333.95 111.00,332.00 C112.40,330.60 114.33,330.00 117.44,330.00 C117.76,330.00 118.07,330.00 118.36,329.99 C119.78,329.97 120.90,329.96 121.77,330.41 C125.01,332.07 125.01,340.05 125.00,377.42 C125.00,379.51 125.00,381.69 125.00,383.97 C125.01,431.63 125.08,433.62 126.99,436.76 C132.53,445.83 144.78,446.34 150.04,437.70 C151.94,434.59 151.99,431.91 152.03,337.50 C152.06,258.11 152.32,240.06 153.42,238.07 C154.43,236.23 163.66,231.51 191.07,218.80 C211.04,209.54 228.19,201.23 229.19,200.33 C233.20,196.70 229.61,187.00 224.25,187.00 C223.24,187.00 205.78,195.14 185.45,205.08 C165.13,215.03 145.12,224.32 141.00,225.73 C134.65,227.90 130.82,228.41 116.00,229.08 C106.38,229.52 90.79,229.90 81.36,229.94 C64.60,230.00 64.11,230.06 58.86,232.80 C54.91,234.86 52.84,236.77 51.00,240.05 L 48.50 244.50 L 48.20 287.00 C48.03,310.38 48.17,331.01 48.51,332.86 C49.93,340.55 59.46,343.85 64.52,338.39 L 66.93 335.78 L 67.22 295.80 L 67.50 255.82 L 69.86 253.91 C72.97,251.39 78.44,251.44 81.00,254.00 C82.97,255.97 83.00,257.36 83.04,343.75 C83.08,415.47 83.34,432.20 84.46,435.35 C85.73,438.92 88.23,441.52 91.97,443.18 ZM 409.32 123.84 C406.68,125.24 183.82,125.41 180.36,124.01 C175.07,121.87 173.40,114.85 177.31,111.17 L 179.63 109.00 L 410.89 109.00 L 412.44 111.22 C415.49,115.57 414.06,121.31 409.32,123.84 ZM 109.38 201.63 C130.23,206.86 150.22,190.60 150.16,168.47 C150.10,147.89 134.40,133.46 114.13,135.35 C95.91,137.05 84.00,150.15 84.00,168.47 C84.00,185.13 93.60,197.67 109.38,201.63 ZM 414.55 250.55 L 412.09 253.00 L 328.80 252.97 C270.44,252.95 244.90,252.61 243.50,251.85 C238.40,249.05 237.47,243.44 241.45,239.45 L 243.91 237.00 L 412.65 237.00 L 414.83 239.31 C417.81,242.49 417.68,247.41 414.55,250.55 ZM 414.66 165.52 C411.49,167.75 257.51,167.75 254.34,165.52 C249.57,162.19 250.73,153.99 256.24,152.06 C260.66,150.53 410.00,150.59 413.39,152.13 C418.36,154.40 419.12,162.40 414.66,165.52 ZM 416.66 207.43 L 414.09 210.00 L 349.30 209.93 C306.09,209.89 283.77,209.51 282.32,208.81 C281.12,208.23 279.61,206.46 278.95,204.88 C277.42,201.18 279.09,196.73 282.61,195.13 C284.38,194.33 303.75,194.00 349.44,194.00 C353.23,194.00 356.81,194.00 360.19,194.00 C407.78,193.98 415.99,193.98 417.85,197.42 C418.37,198.38 418.40,199.60 418.65,201.18 C419.14,204.24 418.81,205.28 416.66,207.43 Z" fill="rgb(1,1,1)"/>
<path d="M 0.00 256.00 L 0.00 0.00 L 256.00 0.00 L 512.00 0.00 L 512.00 256.00 L 512.00 512.00 L 256.00 512.00 L 0.00 512.00 L 0.00 256.00 ZM 105.89 458.54 C108.17,457.74 111.53,455.94 113.36,454.54 C115.19,453.14 116.99,452.00 117.35,452.00 C117.72,452.00 119.79,453.29 121.96,454.86 C136.19,465.17 157.96,459.02 165.64,442.52 L 167.98 437.50 L 167.99 377.27 L 168.00 317.03 L 311.75 316.77 L 455.50 316.50 L 461.20 313.70 C468.36,310.19 475.23,302.67 477.96,295.37 C480.02,289.88 480.03,288.94 479.77,182.67 L 479.50 75.50 L 476.85 70.50 C473.27,63.74 467.62,58.26 461.00,55.11 L 455.50 52.50 L 294.98 52.50 L 134.46 52.50 L 127.77 55.79 C120.50,59.37 115.42,64.49 111.75,71.92 C109.69,76.12 109.46,78.29 109.00,97.86 L 108.50 119.23 L 103.00 120.95 C94.49,123.60 89.10,126.76 82.78,132.79 C76.17,139.09 70.82,148.76 68.95,157.74 C67.27,165.84 68.23,180.10 70.94,187.22 C73.96,195.15 80.75,203.99 87.54,208.86 C91.12,211.42 92.75,213.14 91.88,213.43 C91.12,213.70 83.53,214.05 75.00,214.21 C60.38,214.50 59.15,214.68 53.27,217.39 C45.73,220.86 38.94,227.76 35.18,235.78 L 32.50 241.50 L 32.19 287.30 C31.93,326.90 32.11,333.85 33.48,338.59 C37.19,351.35 51.91,360.04 64.19,356.72 L 66.88 355.99 L 67.19 397.25 L 67.50 438.50 L 70.21 443.64 C76.93,456.38 92.99,463.09 105.89,458.54 ZM 91.97 443.18 C88.23,441.52 85.73,438.92 84.46,435.35 C83.34,432.20 83.08,415.47 83.04,343.75 C83.00,257.36 82.97,255.97 81.00,254.00 C78.44,251.44 72.97,251.39 69.86,253.91 L 67.50 255.82 L 67.22 295.80 L 66.93 335.78 L 64.52 338.39 C59.46,343.85 49.93,340.55 48.51,332.86 C48.17,331.01 48.03,310.38 48.20,287.00 L 48.50 244.50 L 51.00 240.05 C52.84,236.77 54.91,234.86 58.86,232.80 C64.11,230.06 64.60,230.00 81.36,229.94 C90.79,229.90 106.38,229.52 116.00,229.08 C130.82,228.41 134.65,227.90 141.00,225.73 C145.12,224.32 165.13,215.03 185.45,205.08 C205.78,195.14 223.24,187.00 224.25,187.00 C229.61,187.00 233.20,196.70 229.19,200.33 C228.19,201.23 211.04,209.54 191.07,218.80 C163.66,231.51 154.43,236.23 153.42,238.07 C152.32,240.06 152.06,258.11 152.03,337.50 C151.99,431.91 151.94,434.59 150.04,437.70 C144.78,446.34 132.53,445.83 126.99,436.76 C125.08,433.62 125.01,431.63 125.00,383.97 C125.00,327.63 125.33,330.00 117.44,330.00 C114.33,330.00 112.40,330.60 111.00,332.00 C109.05,333.95 109.00,335.34 109.00,384.25 C108.99,432.32 108.91,434.64 107.04,437.70 C103.91,442.84 96.92,445.38 91.97,443.18 ZM 168.45 299.73 C168.18,299.04 168.09,286.87 168.23,272.70 L 168.50 246.94 L 201.96 231.43 C220.36,222.90 236.85,214.83 238.60,213.49 C240.36,212.15 242.96,208.70 244.40,205.83 C251.39,191.80 244.21,175.96 229.04,171.98 C221.00,169.87 220.36,170.11 177.00,191.31 C165.18,197.10 155.38,201.70 155.22,201.55 C155.07,201.40 156.54,198.92 158.48,196.03 C164.15,187.61 166.34,178.77 165.78,166.65 C165.15,153.08 161.50,144.01 152.83,134.56 C145.85,126.94 140.19,123.32 131.60,120.97 L 125.50 119.30 L 125.21 101.90 C125.04,92.33 125.17,83.05 125.50,81.28 C126.28,76.97 130.51,72.13 135.46,69.88 C139.32,68.12 146.30,68.04 295.04,68.02 L 450.58 68.00 L 455.03 70.25 C457.97,71.73 460.26,73.86 461.73,76.50 L 463.97 80.50 L 463.98 184.30 C464.00,271.73 463.78,288.53 462.59,290.80 C460.70,294.43 456.13,298.63 452.68,299.94 C448.25,301.61 169.10,301.41 168.45,299.73 ZM 414.55 250.55 C417.68,247.41 417.81,242.49 414.83,239.31 L 412.65 237.00 L 328.28 237.00 L 243.91 237.00 L 241.45 239.45 C237.47,243.44 238.40,249.05 243.50,251.85 C244.90,252.61 270.44,252.95 328.80,252.97 L 412.09 253.00 L 414.55 250.55 ZM 416.66 207.43 C418.81,205.28 419.14,204.24 418.65,201.18 C417.43,193.58 421.49,194.00 349.44,194.00 C303.75,194.00 284.38,194.33 282.61,195.13 C279.09,196.73 277.42,201.18 278.95,204.88 C279.61,206.46 281.12,208.23 282.32,208.81 C283.77,209.51 306.09,209.89 349.30,209.93 L 414.09 210.00 L 416.66 207.43 ZM 414.66 165.52 C419.12,162.40 418.36,154.40 413.39,152.13 C410.00,150.59 260.66,150.53 256.24,152.06 C250.73,153.99 249.57,162.19 254.34,165.52 C257.51,167.75 411.49,167.75 414.66,165.52 ZM 409.32 123.84 C414.06,121.31 415.49,115.57 412.44,111.22 L 410.89 109.00 L 295.26 109.00 L 179.63 109.00 L 177.31 111.17 C173.40,114.85 175.07,121.87 180.36,124.01 C183.82,125.41 406.68,125.24 409.32,123.84 ZM 109.38 201.63 C93.60,197.67 84.00,185.13 84.00,168.47 C84.00,150.15 95.91,137.05 114.13,135.35 C134.40,133.46 150.10,147.89 150.16,168.47 C150.22,190.60 130.23,206.86 109.38,201.63 Z" fill="rgb(254,254,254)"/>
</g>
</svg>