<svg xmlns="http://www.w3.org/2000/svg" width="512" height="512" viewBox="0 0 512 512">
<g>
<path d="M 461.20 313.70 L 455.50 316.50 L 312.22 316.77 C196.94,316.98 168.85,316.78 168.46,315.76 C168.19,315.06 168.09,299.29 168.24,280.71 L 168.50 246.93 L 179.00 242.10 C220.98,222.77 235.69,215.71 238.53,213.55 C246.82,207.22 249.49,193.15 244.22,183.50 C241.00,177.60 234.19,172.61 228.01,171.62 C226.72,171.41 225.70,171.22 224.68,171.14 C219.57,170.78 214.26,173.34 175.72,191.96 C174.11,192.74 172.44,193.54 170.72,194.38 C162.03,198.57 154.70,202.00 154.41,202.00 C154.13,202.00 155.02,200.53 156.40,198.72 C167.25,184.50 169.36,163.81 161.64,147.48 C153.27,129.79 136.26,119.00 116.73,119.00 L 108.83 119.00 L 109.16 97.75 C109.47,78.10 109.67,76.16 111.75,71.92 C115.42,64.49 120.50,59.37 127.77,55.79 L 134.46 52.50 L 455.50 52.50 L 461.00 55.11 C467.62,58.26 473.27,63.74 476.85,70.50 L 479.50 75.50 L 479.77 182.67 C480.03,288.94 480.02,289.88 477.96,295.37 C475.23,302.67 468.36,310.19 461.20,313.70 ZM 101.97 442.72 C100.61,443.41 97.83,443.98 95.78,443.99 C91.04,444.00 85.47,439.36 84.03,434.17 C83.37,431.81 83.01,399.40 83.01,343.25 C83.00,257.34 82.97,255.97 81.00,254.00 C78.86,251.86 74.06,251.36 71.04,252.98 C67.38,254.94 67.00,259.15 67.00,298.00 L 67.00 335.71 L 64.55 338.35 C59.46,343.85 49.94,340.58 48.51,332.86 C48.17,331.01 48.03,310.38 48.20,287.00 L 48.50 244.50 L 51.00 240.05 C52.80,236.85 54.92,234.86 58.55,232.96 L 63.60 230.33 L 96.03 229.62 C119.36,229.12 130.42,228.49 135.48,227.37 C142.30,225.87 159.09,218.19 204.43,195.84 C214.29,190.98 223.12,187.00 224.05,187.00 C224.97,187.00 226.92,187.93 228.37,189.07 C231.52,191.55 231.94,196.65 229.25,199.89 C228.29,201.05 211.13,209.58 191.12,218.84 C163.83,231.48 154.41,236.29 153.40,238.09 C152.32,240.05 152.06,258.57 152.03,337.50 C151.99,431.91 151.94,434.59 150.04,437.70 C144.78,446.34 132.53,445.83 126.99,436.76 C125.08,433.62 125.01,431.63 125.00,383.97 C125.00,381.69 125.00,379.51 125.00,377.42 C125.01,340.05 125.01,332.07 121.77,330.41 C120.90,329.96 119.78,329.97 118.36,329.99 C118.07,330.00 117.76,330.00 117.44,330.00 C114.33,330.00 112.40,330.60 111.00,332.00 C109.05,333.95 109.00,335.33 109.00,384.35 L 109.00 434.70 L 106.72 438.09 C105.47,439.95 103.33,442.03 101.97,442.72 ZM 180.36 124.01 C181.54,124.48 233.03,124.90 294.80,124.94 L 302.42 124.94 C403.16,125.00 411.02,125.00 412.87,121.67 C413.08,121.31 413.21,120.90 413.38,120.46 C414.47,117.62 414.05,113.52 412.44,111.22 L 410.89 109.00 L 179.15 109.00 L 177.07 111.63 C175.93,113.08 175.00,115.23 175.00,116.41 C175.00,119.18 177.63,122.91 180.36,124.01 ZM 130.39 200.15 C127.94,201.23 122.91,202.32 119.22,202.56 C99.70,203.81 84.00,188.69 84.00,168.64 C84.00,155.09 90.05,144.81 101.44,139.00 C107.82,135.75 108.94,135.50 117.40,135.54 C124.45,135.57 127.54,136.05 131.12,137.67 C137.70,140.66 143.16,145.98 146.56,152.70 C149.23,157.97 149.50,159.42 149.50,168.50 C149.50,177.40 149.20,179.12 146.73,184.14 C143.50,190.71 136.73,197.35 130.39,200.15 ZM 243.50 251.85 C244.90,252.61 270.44,252.95 328.80,252.97 L 412.09 253.00 L 414.55 250.55 C417.68,247.41 417.81,242.49 414.83,239.31 L 412.65 237.00 L 243.91 237.00 L 241.45 239.45 C237.47,243.44 238.40,249.05 243.50,251.85 ZM 254.34 165.52 C257.51,167.75 411.49,167.75 414.66,165.52 C419.43,162.19 418.27,153.99 412.76,152.06 C408.66,150.64 262.00,150.59 256.86,152.02 C250.77,153.71 249.23,161.95 254.34,165.52 ZM 281.27 208.03 C283.32,209.95 285.13,210.00 348.73,210.00 L 414.09 210.00 L 416.55 207.55 C419.79,204.30 419.79,199.70 416.55,196.45 L 414.09 194.00 L 349.59 194.00 C303.79,194.00 284.38,194.33 282.61,195.13 C279.67,196.47 277.55,201.01 278.49,203.96 C278.86,205.12 280.11,206.95 281.27,208.03 Z" fill="rgb(0,0,0)"/>
<path d="M 0.00 256.00 L 0.00 0.00 L 256.00 0.00 L 512.00 0.00 L 512.00 256.00 L 512.00 512.00 L 256.00 512.00 L 0.00 512.00 L 0.00 256.00 ZM 101.97 442.72 C103.33,442.03 105.47,439.95 106.72,438.09 L 109.00 434.70 L 109.00 384.35 C109.00,335.33 109.05,333.95 111.00,332.00 C112.40,330.60 114.33,330.00 117.44,330.00 C125.33,330.00 125.00,327.63 125.00,383.97 C125.01,431.63 125.08,433.62 126.99,436.76 C132.53,445.83 144.78,446.34 150.04,437.70 C151.94,434.59 151.99,431.91 152.03,337.50 C152.06,258.57 152.32,240.05 153.40,238.09 C154.41,236.29 163.83,231.48 191.12,218.84 C211.13,209.58 228.29,201.05 229.25,199.89 C231.94,196.65 231.52,191.55 228.37,189.07 C226.92,187.93 224.97,187.00 224.05,187.00 C223.12,187.00 214.29,190.98 204.43,195.84 C159.09,218.19 142.30,225.87 135.48,227.37 C130.42,228.49 119.36,229.12 96.03,229.62 L 63.60 230.33 L 58.55 232.96 C54.92,234.86 52.80,236.85 51.00,240.05 L 48.50 244.50 L 48.20 287.00 C48.03,310.38 48.17,331.01 48.51,332.86 C49.94,340.58 59.46,343.85 64.55,338.35 L 67.00 335.71 L 67.00 298.00 C67.00,259.15 67.38,254.94 71.04,252.98 C74.06,251.36 78.86,251.86 81.00,254.00 C82.97,255.97 83.00,257.34 83.01,343.25 C83.01,399.40 83.37,431.81 84.03,434.17 C85.47,439.36 91.04,444.00 95.78,443.99 C97.83,443.98 100.61,443.41 101.97,442.72 ZM 461.20 313.70 C468.36,310.19 475.23,302.67 477.96,295.37 C480.02,289.88 480.03,288.94 479.77,182.67 L 479.50 75.50 L 476.85 70.50 C473.27,63.74 467.62,58.26 461.00,55.11 L 455.50 52.50 L 294.98 52.50 L 134.46 52.50 L 127.77 55.79 C120.50,59.37 115.42,64.49 111.75,71.92 C109.67,76.16 109.47,78.10 109.16,97.75 L 108.83 119.00 L 116.73 119.00 C136.26,119.00 153.27,129.79 161.64,147.48 C169.36,163.81 167.25,184.50 156.40,198.72 C155.02,200.53 154.13,202.00 154.41,202.00 C154.70,202.00 162.03,198.57 170.72,194.38 C222.16,169.53 220.10,170.35 228.01,171.62 C234.19,172.61 241.00,177.60 244.22,183.50 C249.49,193.15 246.82,207.22 238.53,213.55 C235.69,215.71 220.98,222.77 179.00,242.10 L 168.50 246.93 L 168.24 280.71 C168.09,299.29 168.19,315.06 168.46,315.76 C168.85,316.78 196.94,316.98 312.22,316.77 L 455.50 316.50 L 461.20 313.70 ZM 130.39 200.15 C136.73,197.35 143.50,190.71 146.73,184.14 C149.20,179.12 149.50,177.40 149.50,168.50 C149.50,159.42 149.23,157.97 146.56,152.70 C143.16,145.98 137.70,140.66 131.12,137.67 C127.54,136.05 124.45,135.57 117.40,135.54 C108.94,135.50 107.82,135.75 101.44,139.00 C90.05,144.81 84.00,155.09 84.00,168.64 C84.00,188.69 99.70,203.81 119.22,202.56 C122.91,202.32 127.94,201.23 130.39,200.15 ZM 243.50 251.85 C238.40,249.05 237.47,243.44 241.45,239.45 L 243.91 237.00 L 328.28 237.00 L 412.65 237.00 L 414.83 239.31 C417.81,242.49 417.68,247.41 414.55,250.55 L 412.09 253.00 L 328.80 252.97 C270.44,252.95 244.90,252.61 243.50,251.85 ZM 281.27 208.03 C280.11,206.95 278.86,205.12 278.49,203.96 C277.55,201.01 279.67,196.47 282.61,195.13 C284.38,194.33 303.79,194.00 349.59,194.00 L 414.09 194.00 L 416.55 196.45 C419.79,199.70 419.79,204.30 416.55,207.55 L 414.09 210.00 L 348.73 210.00 C285.13,210.00 283.32,209.95 281.27,208.03 ZM 254.34 165.52 C249.23,161.95 250.77,153.71 256.86,152.02 C262.00,150.59 408.66,150.64 412.76,152.06 C418.27,153.99 419.43,162.19 414.66,165.52 C411.49,167.75 257.51,167.75 254.34,165.52 ZM 180.36 124.01 C177.63,122.91 175.00,119.18 175.00,116.41 C175.00,115.23 175.93,113.08 177.07,111.63 L 179.15 109.00 L 295.02 109.00 L 410.89 109.00 L 412.44 111.22 C414.05,113.52 414.47,117.62 413.38,120.46 C411.59,125.11 414.29,125.00 294.80,124.94 C233.03,124.90 181.54,124.48 180.36,124.01 Z" fill="rgb(254,254,254)"/>
</g>
</svg>